# xmcd
#
# Track frame offsets:
#	150
#	21967
#	40097
#	57335
#	76197
#	96865
#	114197
#	132185
#	154012
#	169017
#	190957
#	211397
#
# Disc length: 3040 seconds
#
# Revision: 2
# Processed by: cddbd v1.5.2PL0 Copyright (c) Steve Scherf et al.
# Submitted via: EZCDAudioConverter 7.1.5.1
#
DISCID=940bde0c
DTITLE=中国娃娃 - 贺岁 喔！喔！喔！
DYEAR=2001
DGENRE=
TTITLE0=发财发福中国年(中文)
TTITLE1=我不想想你(中文)
TTITLE2=狗脸 Kon-Nah-Mow
TTITLE3=弟弟不在 Tee-Mai-Yoo
TTITLE4=少来了 Noy-Noy-Noy
TTITLE5=狗歌 Pleng Man-Man
TTITLE6=Oh!Oh!Oh!
TTITLE7=新年快乐 H.N.Y
TTITLE8=你太小 Nee-Tai-Seeow
TTITLE9=泰国人 Mun-Nah-Mow
TTITLE10=Oh!Oh!Oh!(Remix)
TTITLE11=雅丽的男朋友(Remix)中文
EXTD=
EXTT0=
EXTT1=
EXTT2=
EXTT3=
EXTT4=
EXTT5=
EXTT6=
EXTT7=
EXTT8=
EXTT9=
EXTT10=
EXTT11=
PLAYORDER=
